<svg height="479pt" viewBox="-31 0 479 479.99253" width="479pt" xmlns="http://www.w3.org/2000/svg"><path d="m264.496094 103.992188c0 44.183593-25.070313 64-56 64-30.929688 0-56-19.816407-56-64 0-48 56-96 56-96s56 48 56 96zm0 0" fill="#ffb531"/><path d="m272.496094 279.992188v-32h-128v32c-79.683594 18.75-136 89.851562-136 171.710937v20.289063h400v-20.289063c0-81.859375-56.316406-152.960937-136-171.710937zm0 0" fill="#4db7e5"/><path d="m339.777344 311.992188h-262.5625c-43.335938 33.390624-68.71875 85.003906-68.71875 139.710937v20.289063h400v-20.289063c.003906-54.707031-25.382813-106.320313-68.71875-139.710937zm0 0" fill="#348fd9"/><path d="m91.886719 351.746094-10.894531-11.753906c4.132812-3.824219 8.46875-7.421876 12.992187-10.777344l9.511719 12.875c-4.046875 3-7.921875 6.222656-11.609375 9.65625zm0 0" fill="#62a9e6"/><path d="m50.894531 425.839844-15.71875-2.992188c5.039063-26.464844 17.023438-51.117187 34.726563-71.421875l12.058594 10.527344c-15.84375 18.160156-26.566407 40.210937-31.066407 63.886719zm0 0" fill="#62a9e6"/><path d="m248.496094 199.992188h-80l-24 48h128zm0 0" fill="#e0e0de"/><path d="m200.496094 119.992188h16v80h-16zm0 0" fill="#d6d6d4"/><path d="m200.496094 119.992188v47.480468c5.3125.691406 10.6875.691406 16 0v-47.480468zm0 0" fill="#fff0a6"/><path d="m248.496094 199.992188h-13.40625c-19 19.726562-41.308594 35.972656-65.914063 48h103.320313zm0 0" fill="#d6d6d4"/><path d="m216.496094 291.007812v-43.015624h-16v43.015624c.050781 7.015626.507812 14.023438 1.367187 20.984376h16.105469c-.941406-6.957032-1.433594-13.964844-1.472656-20.984376zm0 0" fill="#79c6e8"/><path d="m136.894531 431.992188h-40.398437v16h40.398437c39.503907.113281 77.941407-12.808594 109.355469-36.757813 4.4375 4.988281 9.148438 9.734375 14.109375 14.207031l1.96875 1.765625c14.863281 13.390625 34.164063 20.792969 54.167969 20.785157 24.300781 0 44-19.699219 44-44 0-24.300782-19.699219-44-44-44h-5.777344c-21.480469-.058594-42.097656 8.480468-57.246094 23.710937-1.648437 1.648437-3.324218 3.25-5.023437 4.800781-16.457031-22.519531-26.945313-48.84375-30.480469-76.511718h-16.105469c3.652344 31.4375 15.472657 61.367187 34.289063 86.816406-28.5625 21.625-63.429688 33.28125-99.257813 33.183594zm127.890625-36.976563c12.15625-12.21875 28.695313-19.070313 45.933594-19.023437h5.777344c15.464844 0 28 12.535156 28 28 0 15.464843-12.535156 28-28 28-16.050782.011718-31.53125-5.929688-43.457032-16.671876l-1.96875-1.777343c-4.398437-3.957031-8.582031-8.152344-12.535156-12.558594 2.128906-1.9375 4.210938-3.925781 6.25-5.96875zm0 0" fill="#62a9e6"/><path d="m93.984375 329.242188c-4.523437 3.34375-8.859375 6.933593-12.992187 10.75l10.894531 11.726562c3.691406-3.410156 7.566406-6.613281 11.609375-9.597656zm0 0"/><path d="m35.207031 422.847656 15.722657 2.992188c4.5-23.675782 15.21875-45.726563 31.0625-63.886719l-12.054688-10.527344c-17.707031 20.304688-29.691406 44.957031-34.730469 71.421875zm0 0"/><path d="m414.097656 422.199219c-.089844-.558594-.144531-1.132813-.242187-1.695313-.75-4.4375-1.695313-8.800781-2.757813-13.175781-.28125-1.128906-.585937-2.230469-.882812-3.351563-.910156-3.441406-1.925782-6.851562-3.039063-10.230468-.335937-1.035156-.648437-2.082032-1.007812-3.105469-1.390625-3.996094-2.917969-7.933594-4.582031-11.816406-.578126-1.34375-1.21875-2.65625-1.824219-4-1.167969-2.535157-2.402344-5.046875-3.65625-7.527344-.882813-1.71875-1.761719-3.425781-2.695313-5.113281-1.105468-1.992188-2.289062-3.941406-3.472656-5.894532-2.234375-3.695312-4.597656-7.308593-7.082031-10.832031-.582031-.800781-1.144531-1.664062-1.742188-2.480469-1.871093-2.566406-3.824219-5.078124-5.832031-7.550781l-.441406-.527343c-24.285156-29.738282-57.28125-51.113282-94.34375-61.128907v-25.777343c0-.113282-.054688-.199219-.0625-.3125-.039063-.820313-.203125-1.628907-.488282-2.398438-.074218-.175781-.113281-.351562-.183593-.527344-.074219-.175781-.058594-.203125-.105469-.296875l-24-48c-1.34375-2.726562-4.117188-4.457031-7.160156-4.464843h-32v-16.488282c28.375-3.070312 56-22.992187 56-71.511718 0-51.09375-56.390625-100-58.792969-102.070313-2.992187-2.5625-7.40625-2.5625-10.398437 0-2.417969 2.070313-58.808594 50.976563-58.808594 102.070313 0 48.519531 27.625 68.441406 56 71.511718v16.488282h-32c-3.03125 0-5.804688 1.710937-7.160156 4.425781l-24 48c-.046876.09375-.054688.199219-.105469.292969-.046875.097656-.109375.355468-.183594.53125-.285156.769531-.449219 1.578124-.488281 2.398437 0 .113281-.0625.199219-.0625.3125v25.777344c-37.070313 10.011719-70.070313 31.394531-94.359375 61.132812l-.441407.527344c-2.007812 2.472656-4 4.984375-5.832031 7.554687-.597656.800782-1.160156 1.65625-1.742187 2.480469-2.480469 3.53125-4.839844 7.140625-7.082032 10.832031-1.183593 1.949219-2.398437 3.902344-3.472656 5.894532-.933594 1.6875-1.8125 3.390625-2.695312 5.113281-1.277344 2.480469-2.488282 4.992187-3.65625 7.527344-.605469 1.335937-1.246094 2.648437-1.824219 4-1.664063 3.875-3.191406 7.816406-4.582031 11.816406-.359375 1.023437-.671875 2.070313-1.007813 3.101563-1.113281 3.378906-2.128906 6.789062-3.039062 10.234374-.296875 1.121094-.601563 2.222657-.882813 3.351563-1.0625 4.34375-2.007812 8.734375-2.757812 13.175781-.097656.558594-.152344 1.136719-.242188 1.695313-.636718 4-1.125 8-1.503906 12-.109375 1.199219-.214844 2.402343-.304688 3.601562-.34375 4.621094-.574218 9.269531-.574218 13.933594v20.289063c0 4.417968 3.582031 8 8 8h400c4.417968 0 8-3.582032 8-8v-20.289063c0-4.664063-.230469-9.285156-.574219-13.886719-.089844-1.199218-.195313-2.398437-.304687-3.601562-.375-4.03125-.863282-8.039063-1.519532-12.015625zm-253.601562-318.207031c0-35.421876 34.601562-72.191407 48-85.113282 13.398437 12.921875 48 49.691406 48 85.113282 0 32.335937-14.480469 52.082031-40 55.433593v-39.433593h-16v39.433593c-25.519532-3.351562-40-23.097656-40-55.433593zm152.488281 200h-96c-.335937-4.304688-.519531-8.632813-.519531-12.984376v-35.015624h48v24c-.003906 3.714843 2.550781 6.941406 6.167968 7.792968 14.777344 3.484375 29.023438 8.9375 42.351563 16.207032zm-139.542969-96h70.109375l16 32h-102.109375zm-27.113281 79.792968c3.617187-.851562 6.171875-4.078125 6.167969-7.792968v-24h48v35.015624c0 4.351563.214844 8.671876.527344 12.984376h-97.015626c13.320313-7.269532 27.554688-12.71875 42.320313-16.207032zm254.167969 176.207032h-384v-12.289063c0-4.367187.222656-8.6875.550781-12.984375.082031-1.039062.160156-2.078125.265625-3.109375.398438-4.265625.902344-8.503906 1.601562-12.679687 0-.136719.054688-.265626.078126-.394532.703124-4.054687 1.601562-8 2.574218-12 .257813-1.007812.515625-2.015625.800782-3.015625 1.074218-4 2.25-7.941406 3.601562-11.808593.144531-.40625.3125-.796876.457031-1.199219 1.222657-3.40625 2.574219-6.742188 4-10.039063.558594-1.289062 1.125-2.566406 1.71875-3.839844 1.253907-2.710937 2.601563-5.375 4-8 1.066407-2.042968 2.199219-4.0625 3.398438-6.054687 1.097656-1.875 2.210937-3.730469 3.378906-5.554687 1.246094-1.949219 2.535156-3.878907 3.871094-5.78125.617187-.890626 1.269531-1.753907 1.902343-2.625 8.929688-12.222657 19.453126-23.191407 31.289063-32.625h122.855469c4.660156 28.554687 16.082031 55.578124 33.3125 78.816406-28.5625 21.625-63.429688 33.28125-99.257813 33.183594h-40.398437v16h40.398437c39.503907.113281 77.941407-12.808594 109.355469-36.757813 4.4375 4.988281 9.148438 9.734375 14.109375 14.207031l1.96875 1.765625c14.863281 13.390625 34.164063 20.792969 54.167969 20.785157 24.300781 0 44-19.699219 44-44 0-24.300782-19.699219-44-44-44h-5.777344c-21.480469-.058594-42.097656 8.480468-57.246094 23.710937-1.648437 1.648437-3.324218 3.25-5.023437 4.800781-14.847657-20.3125-24.867188-43.742187-29.289063-68.511718h117.847656c11.832032 9.425781 22.351563 20.394531 31.28125 32.609374.632813.871094 1.289063 1.734376 1.902344 2.621094 1.335938 1.90625 2.625 3.832032 3.871094 5.785156 1.167969 1.824219 2.28125 3.679688 3.378906 5.550782 1.171875 2 2.304688 4.019531 3.398438 6.058594 1.402344 2.640624 2.746094 5.304687 4 8 .59375 1.269531 1.160156 2.550781 1.71875 3.839843 1.433594 3.296875 2.785156 6.632813 4 10.039063.144531.402344.3125.800781.457031 1.199218 1.351563 3.863282 2.527344 7.816407 3.601563 11.808594.269531 1 .527343 2.007813.800781 3.015625.980469 4 1.871093 7.945313 2.574219 12 0 .128907.054687.257813.078124.394531.714844 4.175782 1.21875 8.414063 1.601563 12.679688.105469 1.03125.183594 2.070312.265625 3.109375.328125 4.296875.550781 8.617187.550781 12.984375zm-141.960938-63.007813c2.132813-1.9375 4.21875-3.925781 6.25-5.96875 12.15625-12.21875 28.695313-19.070313 45.933594-19.023437h5.777344c15.464844 0 28 12.535156 28 28 0 15.464843-12.535156 28-28 28-16.050782.011718-31.53125-5.929688-43.457032-16.671876l-1.96875-1.777343c-4.398437-3.957031-8.582031-8.152344-12.535156-12.558594zm0 0"/></svg>